<?xml version="1.0" standalone="no"?>
<!DOCTYPE svg PUBLIC "-//W3C//DTD SVG 20010904//EN"
 "http://www.w3.org/TR/2001/REC-SVG-20010904/DTD/svg10.dtd">
<svg version="1.0" xmlns="http://www.w3.org/2000/svg"
 width="1280.000000pt" height="1280.000000pt" viewBox="0 0 1280.000000 1280.000000"
 preserveAspectRatio="xMidYMid meet">
<g transform="translate(0.000000,1280.000000) scale(0.100000,-0.100000)"
fill="#000000" stroke="none">
<path d="M6925 6893 c-16 -2 -72 -13 -124 -24 -172 -39 -244 -81 -297 -175
-61 -109 -74 -117 -209 -129 -81 -7 -187 -30 -217 -46 -21 -11 -21 -12 -2 -22
11 -6 94 -12 189 -14 94 -2 180 -6 192 -9 13 -2 31 -20 42 -42 11 -20 49 -77
86 -127 99 -135 120 -184 119 -275 0 -41 -11 -122 -23 -180 -36 -174 -46 -289
-33 -394 47 -382 311 -677 855 -952 81 -41 147 -81 147 -88 0 -28 -236 -126
-437 -181 -70 -19 -112 -33 -93 -31 230 31 275 31 264 2 -5 -12 9 -10 65 11
79 29 101 26 101 -14 l0 -28 33 38 32 38 190 8 190 8 73 -29 c39 -17 72 -36
72 -43 0 -7 -24 -20 -52 -30 -29 -9 -60 -21 -68 -27 -12 -8 -11 -8 3 -4 11 3
56 13 102 23 l84 16 85 -49 c112 -64 178 -112 171 -124 -11 -17 -315 -12 -385
6 -50 13 -74 14 -123 5 -33 -6 -64 -15 -67 -21 -8 -13 -256 -47 -266 -37 -4 4
1 16 11 27 18 19 17 20 -6 20 -42 0 -132 -28 -193 -60 -44 -23 -112 -41 -259
-71 -242 -49 -294 -67 -341 -119 -47 -53 -55 -85 -27 -113 19 -19 33 -22 104
-22 80 0 86 2 212 61 147 70 231 102 357 138 253 73 637 130 695 103 18 -8 29
-8 44 1 20 13 273 17 340 6 39 -7 75 -36 388 -313 83 -73 151 -140 151 -148 0
-16 -3 -17 -210 -90 -434 -153 -889 -273 -1240 -327 -308 -48 -477 -59 -870
-60 l-364 -1 -17 125 c-42 319 -112 485 -268 641 -74 74 -206 164 -307 210
-38 17 -64 35 -61 42 2 8 70 18 205 29 312 26 865 105 967 137 54 17 -3 12
-170 -14 -423 -67 -652 -94 -953 -115 l-154 -10 -101 29 c-239 70 -420 91
-777 91 -256 0 -818 -35 -1365 -85 -190 -17 -325 -19 -380 -6 -54 14 -75 13
-72 -1 1 -10 -26 -14 -103 -16 -109 -3 -150 2 -150 17 0 5 8 11 18 14 10 2 2
7 -21 11 -27 6 -50 3 -85 -9 -81 -31 -319 -32 -310 -2 2 7 46 40 97 75 80 53
99 62 138 62 39 0 44 2 33 14 -10 13 2 22 71 56 67 34 96 43 157 47 62 5 72 8
58 18 -9 7 -16 16 -16 21 0 5 68 45 151 88 359 189 549 352 652 561 83 166 96
320 52 576 -33 194 -29 217 70 369 34 52 70 107 79 123 16 27 17 27 125 27
116 0 201 8 201 20 0 14 -52 30 -137 41 -138 18 -151 24 -191 98 -43 78 -89
113 -196 147 -108 35 -313 45 -396 21 -141 -42 -261 -144 -448 -382 -69 -88
-184 -230 -257 -315 -242 -286 -296 -367 -590 -894 -64 -115 -147 -255 -185
-310 -75 -110 -248 -323 -280 -345 -17 -11 -37 -9 -151 18 -281 68 -477 141
-593 220 -44 31 -71 40 -64 22 6 -17 311 -262 401 -321 48 -32 116 -70 152
-85 45 -19 65 -33 65 -46 0 -9 -105 -119 -239 -249 -320 -310 -382 -384 -552
-658 -58 -92 -84 -123 -140 -168 -39 -31 -74 -67 -79 -80 -9 -24 -3 -107 9
-131 13 -26 553 383 781 591 126 115 156 132 118 64 -13 -24 -91 -162 -173
-308 -81 -146 -177 -312 -212 -370 -75 -123 -55 -104 119 118 121 153 148 180
148 148 0 -7 -43 -154 -95 -327 -52 -172 -95 -317 -95 -323 0 -16 167 281 298
529 211 403 267 478 546 733 88 81 210 194 270 251 l109 104 206 -6 c113 -3
226 -11 251 -16 33 -7 82 -6 180 5 211 24 421 6 720 -63 446 -102 869 -399
1050 -735 79 -148 127 -330 117 -443 -16 -172 -136 -360 -315 -496 -67 -51
-216 -130 -317 -169 -69 -26 -88 -40 -59 -40 29 0 301 102 408 154 233 111
435 311 495 487 34 101 38 188 11 294 -40 161 -110 300 -214 428 -26 32 -46
63 -44 68 2 5 53 -20 113 -57 127 -77 183 -104 351 -167 308 -115 699 -203
1037 -232 101 -9 102 -11 93 -172 -13 -253 -77 -468 -221 -740 -166 -314 -396
-584 -675 -794 -347 -260 -632 -405 -927 -469 -109 -24 -370 -50 -498 -50
-201 0 -434 36 -592 91 -233 81 -478 243 -631 417 -176 201 -252 349 -327 636
-62 236 -83 419 -87 741 -3 169 -1 196 17 244 l20 53 -24 19 c-23 19 -56 24
-85 13 -20 -8 -31 -44 -58 -194 -52 -292 -13 -638 113 -1015 90 -267 166 -399
328 -568 151 -158 382 -333 525 -397 96 -43 248 -89 375 -112 96 -18 156 -21
356 -22 265 -1 365 9 547 55 165 41 260 72 436 141 207 82 212 75 31 -47 -302
-204 -1049 -470 -1699 -604 -458 -94 -937 -136 -1370 -120 -281 10 -362 43
-720 296 -113 80 -233 149 -298 171 -27 9 -38 23 -66 86 -19 42 -40 76 -45 76
-17 0 -14 -12 20 -87 17 -37 35 -94 39 -125 23 -156 139 -287 318 -357 279
-110 703 -127 1457 -60 418 37 817 117 1290 259 400 120 612 200 894 336 394
191 594 316 747 469 55 55 142 135 191 178 230 198 439 486 618 852 127 260
173 409 196 636 6 63 14 121 19 129 6 13 59 15 376 16 415 2 632 14 909 49
387 50 845 161 1329 321 139 46 204 63 217 57 30 -14 217 -192 294 -280 122
-139 198 -259 400 -628 49 -88 141 -248 205 -355 64 -107 127 -214 140 -237
13 -24 25 -41 27 -39 2 2 -57 194 -132 427 -79 246 -132 426 -127 431 6 6 110
-112 251 -281 133 -160 244 -291 247 -291 2 0 -18 30 -45 68 -86 119 -194 290
-366 582 -93 157 -190 320 -217 362 -47 75 -56 98 -40 98 13 -1 49 -34 61 -57
7 -13 17 -23 24 -23 7 0 44 -28 82 -62 186 -163 454 -364 790 -591 l220 -148
14 77 c14 72 14 78 -5 112 -11 21 -53 61 -102 96 -77 57 -90 72 -201 237 -136
203 -186 270 -274 366 -55 60 -302 298 -422 406 -35 32 -38 38 -25 50 43 41
689 247 931 296 317 65 514 51 710 -50 139 -72 236 -198 288 -374 96 -321 -15
-743 -274 -1048 -99 -118 -327 -288 -513 -385 -61 -32 -82 -48 -82 -63 0 -47
58 -34 180 39 195 117 421 318 572 508 45 57 86 104 90 104 13 0 9 -30 -16
-146 -36 -164 -49 -280 -37 -341 22 -114 84 -203 156 -223 105 -30 207 11 385
152 154 123 363 331 358 357 -2 15 -17 4 -67 -56 -99 -116 -264 -252 -373
-307 -97 -48 -189 -72 -238 -61 -36 8 -75 53 -108 124 -24 52 -25 59 -19 200
9 206 58 444 116 556 100 196 116 436 49 729 -26 112 -56 180 -121 274 -86
125 -197 205 -367 264 -93 32 -98 33 -270 33 -130 0 -197 -5 -260 -18 -224
-47 -485 -136 -946 -321 -160 -64 -296 -116 -302 -116 -16 0 -355 333 -474
467 -207 232 -314 384 -518 733 -150 257 -224 377 -333 540 -139 207 -184 263
-522 641 -66 74 -166 190 -221 259 -143 178 -195 232 -290 303 -108 81 -211
134 -299 152 -63 13 -232 18 -310 8z m-2842 -3010 c23 -27 96 -103 161 -170
66 -68 117 -123 114 -123 -3 0 -75 35 -160 78 -168 85 -300 136 -478 182 -166
43 -169 44 -172 55 -2 6 69 12 192 15 107 3 219 7 248 8 52 2 54 1 95 -45z
m727 26 c501 -31 782 -101 1005 -252 138 -93 232 -208 295 -359 40 -97 80
-234 80 -276 l0 -25 -86 7 c-250 19 -593 97 -921 210 -497 171 -673 270 -927
523 -128 127 -163 172 -145 184 16 11 439 4 699 -12z"/>
<path d="M5700 5325 c-143 -32 -310 -105 -480 -210 -226 -139 -756 -433 -878
-486 -172 -76 -395 -151 -532 -181 -85 -18 -138 -22 -280 -23 l-175 0 -3 -28
c-2 -18 2 -29 13 -33 21 -9 219 20 385 56 239 51 695 120 890 135 231 17 777
109 1005 170 290 77 492 225 624 458 38 66 40 68 146 97 79 22 116 40 81 40
-9 0 -57 -11 -105 -25 l-88 -24 -119 31 c-102 26 -141 31 -269 34 -106 3 -169
-1 -215 -11z"/>
<path d="M2972 4313 c2 -5 14 -25 27 -47 23 -36 25 -37 32 -17 10 25 42 27 79
6 14 -8 32 -14 40 -14 30 -1 -36 39 -99 59 -68 22 -85 24 -79 13z"/>
<path d="M6988 4183 c7 -3 16 -2 19 1 4 3 -2 6 -13 5 -11 0 -14 -3 -6 -6z"/>
<path d="M2779 4109 c14 -25 22 -29 59 -29 23 0 42 3 42 8 0 4 -27 17 -59 28
l-59 22 17 -29z"/>
<path d="M7880 4073 c-19 -8 -66 -26 -105 -39 l-70 -23 55 -1 c30 0 65 -3 78
-6 15 -4 22 -2 22 7 0 7 14 28 32 46 36 38 36 38 -12 16z"/>
<path d="M12755 3081 c-16 -10 -50 -31 -73 -46 -56 -34 -46 -45 16 -17 26 11
59 23 75 27 21 4 27 11 27 30 0 30 -6 31 -45 6z"/>
<path d="M358 2093 c-136 -155 -246 -301 -288 -383 -18 -37 -6 -22 137 160
225 288 265 340 259 340 -3 0 -52 -53 -108 -117z"/>
<path d="M766 1986 c-44 -102 -98 -265 -93 -280 4 -11 90 204 122 302 27 83
11 71 -29 -22z"/>
<path d="M10822 1763 c36 -43 176 -213 313 -378 284 -345 287 -347 250 -278
-31 58 -156 227 -235 318 -81 92 -382 415 -387 415 -3 0 24 -35 59 -77z"/>
<path d="M10400 1605 c-1 -34 206 -572 217 -562 8 9 -53 204 -101 321 -55 134
-115 259 -116 241z"/>
<path d="M10681 693 c0 -43 3 -73 9 -73 12 0 12 36 1 100 -8 43 -9 41 -10 -27z"/>
</g>
</svg>
